<svg width="632" height="316" viewBox="0 0 632 316" fill="none" xmlns="http://www.w3.org/2000/svg">
<mask id="path-1-inside-1_1_105" fill="white">
<path d="M2.76256e-05 316C3.49524e-05 232.192 33.2928 151.816 92.5543 92.5542C151.816 33.2927 232.192 -2.8625e-05 316 -2.76256e-05C399.808 -2.66262e-05 480.184 33.2927 539.446 92.5542C598.707 151.816 632 232.192 632 316L316 316L2.76256e-05 316Z"/>
</mask>
<path d="M2.76256e-05 316C3.49524e-05 232.192 33.2928 151.816 92.5543 92.5542C151.816 33.2927 232.192 -2.8625e-05 316 -2.76256e-05C399.808 -2.66262e-05 480.184 33.2927 539.446 92.5542C598.707 151.816 632 232.192 632 316L316 316L2.76256e-05 316Z" fill="white" stroke="black" stroke-width="4" mask="url(#path-1-inside-1_1_105)"/>
</svg>
